<svg width="24" height="24" viewBox="0 0 24 24" fill="none" xmlns="http://www.w3.org/2000/svg">
  <rect x="3" y="8" width="18" height="13" rx="2" stroke="currentColor" stroke-width="2"/>
  <path d="M12 8V21" stroke="currentColor" stroke-width="2"/>
  <path d="M3 12H21" stroke="currentColor" stroke-width="1.5"/>
  <path d="M12 8C10.3431 8 9 6.65685 9 5C9 3.34315 10.3431 2 12 2C13.6569 2 15 3.34315 15 5C15 6.65685 13.6569 8 12 8Z" stroke="currentColor" stroke-width="2"/>
  <path d="M9 5C9 3.89543 8.10457 3 7 3C5.89543 3 5 3.89543 5 5C5 6.10457 5.89543 7 7 7C8.10457 7 9 6.10457 9 5Z" stroke="currentColor" stroke-width="1.5"/>
  <path d="M19 5C19 3.89543 18.1046 3 17 3C15.8954 3 15 3.89543 15 5C15 6.10457 15.8954 7 17 7C18.1046 7 19 6.10457 19 5Z" stroke="currentColor" stroke-width="1.5"/>
</svg> 