<svg width="24" height="24" viewBox="0 0 24 24" fill="none" xmlns="http://www.w3.org/2000/svg">
  <path d="M7 4V2M17 4V2M7 4C5.34315 4 4 5.34315 4 7V19C4 20.6569 5.34315 22 7 22H17C18.6569 22 20 20.6569 20 19V7C20 5.34315 18.6569 4 17 4M7 4H17" stroke="currentColor" stroke-width="2" stroke-linecap="round"/>
  <path d="M4 9H20" stroke="currentColor" stroke-width="2"/>
  <circle cx="8" cy="14" r="1.5" fill="currentColor"/>
  <circle cx="12" cy="14" r="1.5" fill="currentColor"/>
  <circle cx="16" cy="14" r="1.5" fill="currentColor"/>
  <path d="M8 18L10 16L14 20L16 18" stroke="currentColor" stroke-width="1.5" stroke-linecap="round" stroke-linejoin="round"/>
</svg>